#!OML:ASF H:\Terrain\Patient Classification 1\Takeo\Monday\TakeoMonday.ASF
:FULLY-SPECIFIED
:DEGREES
246
root 9.97673 17.4718 12.3468 -5.50061 -3.08252 -1.55744
lowerback 7.05982 -0.248613 2.33746
upperback 2.11211 -0.154921 0.63079
thorax -1.78243 -0.0806314 -0.650025
lowerneck -9.82692 2.81487 0.170133
upperneck 4.49993 3.91697 -2.55789
head 3.24805 1.83891 -0.637533
rclavicle 2.23943e-015 4.47266e-015
rhumerus -21.8468 2.55562 -88.6209
rradius 27.2822
rwrist -11.6598
rhand -22.2282 15.2603
rfingers 7.12502
rthumb 4.18842 -14.6783
lclavicle 2.23943e-015 4.47266e-015
lhumerus -45.2556 28.1791 70.3523
lradius 15.588
lwrist 6.90469
lhand -22.6858 23.0403
lfingers 7.12502
lthumb 3.74653 52.9871
rfemur -2.01753 5.94134 27.8919
rtibia 30.4103
rfoot -23.6629 -6.28023
rtoes 4.83943
lfemur -22.6928 2.26881 -20.2461
ltibia 64.7628
lfoot -7.13773 11.4668
ltoes -14.7034
247
root 9.98686 17.476 12.5183 -5.46611 -3.25379 -1.32524
lowerback 7.01026 -0.235227 2.17035
upperback 2.12275 -0.15318 0.506666
thorax -1.74392 -0.079081 -0.68432
lowerneck -9.92878 2.81059 0.170898
upperneck 4.46582 3.9066 -2.50103
head 3.25416 1.83565 -0.618467
rclavicle 6.8736e-015 1.05356e-014
rhumerus -21.0939 3.42577 -88.757
rradius 28.603
rwrist -11.8793
rhand -22.0495 14.8498
rfingers 7.12502
rthumb 4.36095 -15.0853
lclavicle 6.8736e-015 1.05356e-014
lhumerus -46.1576 28.0308 69.9871
lradius 15.7665
lwrist 7.32461
lhand -22.4938 22.7831
lfingers 7.12502
lthumb 3.93192 52.7266
rfemur -1.02714 5.57822 27.5297
rtibia 29.628
rfoot -22.7864 -6.19365
rtoes -0.38033
lfemur -23.3162 1.81203 -20.4395
ltibia 62.8921
lfoot -7.84185 11.7521
ltoes -13.8948
248
root 9.99374 17.4908 12.6767 -5.40251 -3.59175 -1.88548
lowerback 7.04785 -0.236671 2.74498
upperback 2.22057 -0.114251 0.601041
thorax -1.66312 -0.0584464 -0.912883
lowerneck -10.0139 2.87177 0.496544
upperneck 4.25197 3.96891 -2.90156
head 3.2171 1.85745 -0.803108
rclavicle -1.45672e-014 -7.15625e-015
rhumerus -20.081 4.88209 -88.9321
rradius 29.8497
rwrist -12.5913
rhand -22.0996 14.8032
rfingers 7.12502
rthumb 4.31256 -15.1329
lclavicle -1.45672e-014 -7.15625e-015
lhumerus -46.904 28.2511 69.4641
lradius 15.8468
lwrist 7.41608
lhand -22.4792 22.2096
lfingers 7.12502
lthumb 3.946 52.1528
rfemur -0.0229695 5.5895 28.1066
rtibia 28.7341
rfoot -22.1177 -5.93104
rtoes -1.97431
lfemur -24.0421 1.52302 -19.6223
ltibia 61.014
lfoot -8.7144 11.8442
ltoes -12.2581
249
root 9.99955 17.4975 12.8227 -5.16224 -3.98988 -2.89988
lowerback 7.22477 -0.262861 3.7562
upperback 2.18127 -0.0650779 0.823188
thorax -1.7994 -0.0370062 -1.25492
lowerneck -9.95617 2.92896 0.676277
upperneck 3.87331 4.02902 -3.16769
head 3.08888 1.88418 -0.920376
rclavicle 5.48832e-015 1.98785e-015
rhumerus -19.1571 6.46429 -89.0585
rradius 30.9663
rwrist -13.166
rhand -22.5661 15.4195
rfingers 7.12502
rthumb 3.86207 -14.5253
lclavicle 5.48832e-015 1.98785e-015
lhumerus -47.5988 28.2498 69.1638
lradius 15.9759
lwrist 7.8719
lhand -22.472 22.0938
lfingers 7.12502
lthumb 3.95302 52.0368
rfemur 0.793903 5.94112 29.269
rtibia 27.7339
rfoot -21.5004 -5.82114
rtoes -2.77094
lfemur -25.1001 1.44963 -18.2253
ltibia 59.0138
lfoot -9.16288 11.887
ltoes -12.5456
250
root 10.0111 17.4928 12.9617 -4.84801 -4.24603 -3.3138
lowerback 7.48784 -0.298584 4.1345
upperback 1.97527 -0.0623764 0.938087
thorax -2.15802 -0.0452402 -1.34805
lowerneck -9.89758 2.93634 0.490969
upperneck 3.70865 4.04641 -3.0034
head 3.01148 1.89856 -0.834288
rclavicle 1.60736e-014 -1.2275e-014
rhumerus -18.4255 7.42158 -89.0705
rradius 32.0632
rwrist -13.3063
rhand -22.7556 16.1473
rfingers 7.12502
rthumb 3.67915 -13.8007
lclavicle 1.60736e-014 -1.2275e-014
lhumerus -48.326 27.8291 69.2818
lradius 16.195
lwrist 8.74124
lhand -22.5026 22.3337
lfingers 7.12502
lthumb 3.92344 52.2773
rfemur 1.49142 5.97077 29.6793
rtibia 26.6328
rfoot -20.9764 -5.60719
rtoes -3.83235
lfemur -26.1035 1.15229 -17.5633
ltibia 56.731
lfoot -9.06544 12.1649
ltoes -13.466
251
root 10.0268 17.5012 13.1218 -4.79286 -4.43086 -3.15545
lowerback 7.57207 -0.225318 4.04868
upperback 1.97116 0.0316233 0.886044
thorax -2.20416 0.000939415 -1.36235
lowerneck -9.73069 2.86478 0.332753
upperneck 3.361 3.96105 -3.0236
head 2.85543 1.8584 -0.821419
rclavicle 1.95772e-014 -2.57426e-014
rhumerus -17.5992 8.19114 -88.8776
rradius 33.3265
rwrist -13.8695
rhand -22.6848 16.0876
rfingers 7.12502
rthumb 3.74749 -13.8592
lclavicle 1.95772e-014 -2.57426e-014
lhumerus -48.977 27.7729 69.1451
lradius 16.3353
lwrist 8.67583
lhand -21.9524 22.9663
lfingers 7.12502
lthumb 4.45476 52.8995
rfemur 2.52443 5.56474 29.3344
rtibia 25.6281
rfoot -20.7508 -4.95411
rtoes -3.81587
lfemur -26.4055 0.498457 -17.5668
ltibia 54.0837
lfoot -9.23752 12.6881
ltoes -12.6488
252
root 10.0448 17.5196 13.3021 -4.88867 -4.51503 -2.80706
lowerback 7.43272 -0.13324 3.85837
upperback 2.16425 0.123582 0.761475
thorax -1.92257 0.0545833 -1.39249
lowerneck -9.68326 2.77469 0.272151
upperneck 2.88529 3.84236 -3.1717
head 2.68488 1.79916 -0.867683
rclavicle -1.22066e-014 4.32357e-015
rhumerus -16.6224 9.15586 -88.5385
rradius 34.6108
rwrist -14.7248
rhand -22.7296 15.6063
rfingers 7.12502
rthumb 3.70421 -14.3413
lclavicle -1.22066e-014 4.32357e-015
lhumerus -49.4837 28.0591 68.7974
lradius 16.3934
lwrist 8.14344
lhand -21.0931 22.7561
lfingers 7.12502
lthumb 5.28448 52.6702
rfemur 3.77307 5.09717 28.7439
rtibia 24.716
rfoot -20.7259 -4.27501
rtoes -2.81499
lfemur -26.3146 -0.181113 -17.7826
ltibia 51.1433
lfoot -9.58928 13.1371
ltoes -11.9459
